<?xml version="1.0" encoding="utf-8"?>
<!-- Generator: Adobe Illustrator 23.0.1, SVG Export Plug-In . SVG Version: 6.00 Build 0)  -->
<svg version="1.1" id="Capa_1" xmlns="http://www.w3.org/2000/svg" xmlns:xlink="http://www.w3.org/1999/xlink" x="0px" y="0px"
	 viewBox="0 0 841.89 595.28" style="enable-background:new 0 0 841.89 595.28;" xml:space="preserve">
<style type="text/css">
	.st0{fill:#CD2E2D;stroke:#000000;stroke-width:9;stroke-miterlimit:10;}
	.st1{fill:#FFED00;}
</style>
<rect x="51" y="46" class="st0" width="254.5" height="254.5"/>
<path class="st1" d="M811.82,215.94c-84.33,13.04-167.4,32.9-249.84,54.7c-81.97,21.68-163.43,45.27-245.66,65.98
	c-29.3,7.38-58.69,14.38-88.21,20.81c90.31-36.99,180.61-73.98,270.92-110.97c30.1-12.33,60.2-24.66,90.31-36.99
	c4.67-1.91,4.82-10.49-1.33-9.82c-71.51,7.8-142.18,21.47-212.38,36.98c-70.2,15.51-140,32.76-210.36,47.53
	c-19.69,4.13-39.42,8.07-59.2,11.72c-9.63,1.77-19.3,3.83-29.03,5.02c-4.44,0.54-8.92,0.8-13.24,0.21
	c93.86-41.25,187.72-82.5,281.59-123.75c27.41-12.05,54.82-24.09,82.23-36.14c4.48-1.97,2.29-9.78-2.52-9.32
	c-93.7,9.03-185.44,30.96-276.04,55.8c-16.01,4.39-31.99,8.87-47.97,13.38c74.82-50.15,154.4-92.76,234.79-133.26
	c25.62-12.91,51.33-25.62,77.05-38.32c4.27-2.11,2.42-9.91-2.52-9.32C308.86,32.32,207.21,44.46,105.01,49.17
	C76.03,50.5,47.02,51.22,18,51.2c-6.43,0-6.45,10,0,10c102.31,0.07,204.29-9.32,305.86-20.84c19.47-2.21,38.93-4.5,58.39-6.81
	c-81.38,40.3-162.53,81.31-239.84,129.06c-24.37,15.05-48.31,30.77-71.72,47.27c-4.42,3.12-1.91,10.78,3.85,9.14
	c89.69-25.47,179.63-50.99,271.68-66.56c15.63-2.64,31.31-4.97,47.03-6.97c-87.68,38.53-175.36,77.07-263.04,115.6
	c-27.41,12.05-54.82,24.09-82.23,36.14c-3.68,1.62-2.8,6.79,0,8.63c12.85,8.48,28.64,5.37,42.84,2.89
	c17.93-3.13,35.81-6.53,53.65-10.11c36.02-7.24,71.88-15.25,107.69-23.46c70.96-16.28,141.76-33.39,213.32-46.89
	c28.65-5.41,57.42-10.2,86.31-14.14C456.52,253.16,361.26,292.18,266,331.19c-30.1,12.33-60.2,24.66-90.31,36.99
	c-5.88,2.41-3.79,10.88,2.66,9.64c83.89-16.03,166.54-37.71,248.9-60.17c81.75-22.3,163.33-45.39,245.92-64.46
	c36.53-8.43,73.26-16.04,110.2-22.47c-65.61,33.63-133.23,63.21-201.48,91.06c-77.72,31.71-156.29,61.31-234.16,92.64
	c-43.49,17.49-86.76,35.54-129.53,54.72c-4.5,2.02-2.28,9.69,2.52,9.32c106.43-8.22,208.36-41.35,311.58-66.2
	c15.86-3.82,31.77-7.42,47.74-10.72c-87.15,38.7-177.8,69.04-268.87,97.16c-29.55,9.13-59.17,18.03-88.78,26.93
	c-5.15,1.55-4.49,10.46,1.33,9.82c91.59-10,182.98-21.8,274.1-35.43c25.86-3.87,51.7-7.89,77.52-12.05
	c6.34-1.02,3.65-10.66-2.66-9.64c-90.41,14.57-181.1,27.35-272.01,38.3c-7.53,0.91-15.06,1.77-22.59,2.65
	c87.37-26.52,174.45-54.21,259.05-88.68c28.41-11.58,56.52-23.89,84.2-37.12c5.49-2.62,1.32-10.01-3.85-9.14
	c-104.03,17.47-204.13,52.19-307.67,71.9c-19.43,3.7-38.96,6.81-58.59,9.17c67.78-29.5,136.65-56.41,205.5-83.31
	c77.94-30.46,155.91-60.95,232.29-95.19c42.88-19.22,85.22-39.66,126.65-61.83C821.05,222.21,817.05,215.14,811.82,215.94z"/>
</svg>
